<?xml version="1.0" encoding="iso-8859-1"?>
<!-- Generator: Adobe Illustrator 21.0.2, SVG Export Plug-In . SVG Version: 6.00 Build 0)  -->
<svg version="1.1" xmlns="http://www.w3.org/2000/svg" xmlns:xlink="http://www.w3.org/1999/xlink" x="0px" y="0px"
	 viewBox="0 0 64 64" style="enable-background:new 0 0 64 64;" xml:space="preserve">
<g id="_x32_5_handle_with_care">
</g>
<g id="_x32_4_dlelivery_courier">
</g>
<g id="_x32_3_date">
</g>
<g id="_x32_2_delivery_by_air">
</g>
<g id="_x32_1_truck">
</g>
<g id="_x32_0_truck">
</g>
<g id="_x31_9_box_protection">
</g>
<g id="_x31_8_checking_box">
</g>
<g id="_x31_7_route">
</g>
<g id="_x31_6_wet_protection">
</g>
<g id="_x31_5_box_upside">
</g>
<g id="_x31_4_cost">
</g>
<g id="_x31_3_delivered">
</g>
<g id="_x31_2_storehouse">
</g>
<g id="_x31_1_not_passed">
</g>
<g id="_x31_0_boxes">
</g>
<g id="_x30_9_freighter">
</g>
<g id="_x30_8_fragile">
</g>
<g id="_x30_7_forklift">
</g>
<g id="_x30_6_courier">
</g>
<g id="_x30_5_scale">
</g>
<g id="_x30_4_calculate_weight">
</g>
<g id="_x30_3_passed">
</g>
<g id="_x30_2_map">
</g>
<g id="_x30_1_checking">
	<g>
		<path d="M62.9926,12.9865c-0.004-0.11-0.0195-0.2199-0.0605-0.3253L59.0254,2.5962C58.876,2.2114,58.5059,1.958,58.0933,1.958
			h-15.27h-7.0845H20.292c-0.4126,0-0.7827,0.2534-0.9321,0.6382l-3.9067,10.0649c-0.041,0.1054-0.0565,0.2153-0.0605,0.3253
			c-0.0005,0.0128-0.0074,0.0236-0.0074,0.0365v7.7622H12.418c-0.8703,0-1.5977,0.6096-1.785,1.4224H3.7588
			C2.2378,22.2075,1,23.3848,1,24.832v34.5854c0,1.4473,1.2378,2.6245,2.7588,2.6245h26.1797c1.5234,0,2.7627-1.1772,2.7627-2.6245
			V47.6421H62c0.5522,0,1-0.4478,1-1V13.0229C63,13.01,62.9931,12.9993,62.9926,12.9865z M60.5391,12.0229H45.0044L43.9609,3.958
			h13.4478L60.5391,12.0229z M35.4365,14.0229h7.689v7.6255l-3.4141-1.626c-0.2725-0.1299-0.5879-0.1299-0.8604,0l-3.4146,1.626
			V14.0229z M41.9443,3.958l1.0435,8.0649h-7.4136l1.0435-8.0649H41.9443z M20.9766,3.958h13.6245l-1.0435,8.0649H17.8462
			L20.9766,3.958z M12.583,22.7852h8.7368v3.7437H12.583V22.7852z M26.5464,28.5288v27.4077H7.3599V28.5288H26.5464z
			 M30.7012,59.4175c0,0.3384-0.3491,0.6245-0.7627,0.6245H3.7588C3.3477,60.042,3,59.7559,3,59.4175V24.832
			c0-0.3384,0.3477-0.6245,0.7588-0.6245h6.8242v2.3213H6.3599c-0.5522,0-1,0.4478-1,1v29.4077c0,0.5522,0.4478,1,1,1h21.1865
			c0.5522,0,1-0.4478,1-1V27.5288c0-0.5522-0.4478-1-1-1h-4.2266v-2.3213h6.6187c0.4136,0,0.7627,0.2861,0.7627,0.6245V59.4175z
			 M61,45.6421H32.7012V24.832c0-1.4473-1.2393-2.6245-2.7627-2.6245h-6.6686c-0.187-0.8128-0.913-1.4224-1.7816-1.4224h-4.103
			v-6.7622h16.0513v9.2095c0,0.3433,0.1758,0.6626,0.4663,0.8457c0.2896,0.1831,0.6533,0.2051,0.9639,0.0571l4.4146-2.1025
			l4.4141,2.1025c0.1367,0.0649,0.2837,0.0972,0.4302,0.0972c0.186,0,0.3716-0.0518,0.5337-0.1543
			c0.2905-0.1831,0.4663-0.5024,0.4663-0.8457v-9.2095H61V45.6421z"/>
		<path d="M48.2661,35.9746h7.7744c0.5522,0,1-0.4478,1-1s-0.4478-1-1-1h-7.7744c-0.5522,0-1,0.4478-1,1
			S47.7139,35.9746,48.2661,35.9746z"/>
		<path d="M56.0405,38.6953h-7.7744c-0.5522,0-1,0.4478-1,1s0.4478,1,1,1h7.7744c0.5522,0,1-0.4478,1-1
			S56.5928,38.6953,56.0405,38.6953z"/>
		<path d="M15.4507,34.3711h7.9023c0.5522,0,1-0.4478,1-1s-0.4478-1-1-1h-7.9023c-0.5522,0-1,0.4478-1,1
			S14.8984,34.3711,15.4507,34.3711z"/>
		<path d="M23.353,38.313h-7.7749c-0.5522,0-1,0.4478-1,1s0.4478,1,1,1h7.7749c0.5522,0,1-0.4478,1-1S23.9053,38.313,23.353,38.313z
			"/>
		<path d="M23.353,44.2515h-7.7749c-0.5522,0-1,0.4478-1,1s0.4478,1,1,1h7.7749c0.5522,0,1-0.4478,1-1
			S23.9053,44.2515,23.353,44.2515z"/>
		<path d="M10.9956,34.3711h0.1201c0.5522,0,1-0.4478,1-1s-0.4478-1-1-1h-0.1201c-0.5522,0-1,0.4478-1,1
			S10.4434,34.3711,10.9956,34.3711z"/>
		<path d="M10.9956,40.313h0.1167c0.5522,0,1-0.4478,1-1s-0.4478-1-1-1h-0.1167c-0.5522,0-1,0.4478-1,1
			S10.4434,40.313,10.9956,40.313z"/>
		<path d="M10.9956,46.2515h0.1167c0.5522,0,1-0.4478,1-1s-0.4478-1-1-1h-0.1167c-0.5522,0-1,0.4478-1,1
			S10.4434,46.2515,10.9956,46.2515z"/>
		<path d="M23.353,50.1929h-7.7749c-0.5522,0-1,0.4478-1,1s0.4478,1,1,1h7.7749c0.5522,0,1-0.4478,1-1
			S23.9053,50.1929,23.353,50.1929z"/>
		<path d="M10.9956,52.1929h0.1167c0.5522,0,1-0.4478,1-1s-0.4478-1-1-1h-0.1167c-0.5522,0-1,0.4478-1,1
			S10.4434,52.1929,10.9956,52.1929z"/>
	</g>
</g>
</svg>
